<svg width="26" height="32" viewBox="0 0 26 32" fill="none" xmlns="http://www.w3.org/2000/svg">
<path d="M12.9965 20.2037C10.9092 20.2186 8.80788 20.2136 6.70876 20.2086C5.66228 20.2062 4.61634 20.2037 3.57297 20.2037C2.27399 20.2227 1.22941 21.159 1.06823 22.4023L1.06819 22.4026C0.885292 23.8093 1.05584 25.0904 1.74787 26.2378C2.63466 27.6988 3.97212 28.7075 5.58562 29.4844L12.9965 20.2037ZM12.9965 20.2037C13.878 20.2037 14.7659 20.2097 15.6577 20.2157C17.7591 20.2298 19.8821 20.2441 21.9944 20.1809M12.9965 20.2037L21.9944 20.1809M21.9944 20.1809C23.8722 20.1325 24.9983 21.6555 25 23.1666C24.9894 24.5817 24.6179 25.702 23.9881 26.6315C23.3498 27.5736 22.411 28.3707 21.1953 29.0711L21.1948 29.0713C18.6783 30.5231 15.8571 31.0207 12.8654 30.9992L21.9944 20.1809ZM12.8652 30.9992C10.2904 30.9776 7.84051 30.568 5.58624 29.4847L12.8652 30.9992Z" stroke="#D5D5DC" stroke-width="2"/>
<path d="M12.975 1.00009C16.8742 0.98042 20.0641 4.10859 20.1051 7.94059C20.1234 11.7683 16.9323 14.9804 13.0103 15.0001C9.09186 15.0198 5.88168 11.83 5.88023 8.00269C5.90142 4.17032 9.07238 1.01978 12.975 1.00009Z" stroke="#D5D5DC" stroke-width="2"/>
</svg>
